<svg width="14" height="17" viewBox="0 0 14 17" fill="none" xmlns="http://www.w3.org/2000/svg">
<path d="M7.52223 3.79978C7.77399 3.47086 7.71143 3.00012 7.38251 2.74836C7.05359 2.49661 6.58285 2.55916 6.33109 2.88808L6.92666 3.34393L7.52223 3.79978ZM1.05938 11.0096L1.63837 11.4863C1.64402 11.4794 1.64955 11.4725 1.65495 11.4654L1.05938 11.0096ZM0.889271 11.445L0.1406 11.3983L0.140003 11.4118L0.889271 11.445ZM0.75 14.5939L0.000732481 14.5608C-0.000841022 14.5964 0.000121355 14.632 0.00361222 14.6675L0.75 14.5939ZM1.5329 15.3096L1.55857 16.0591C1.61085 16.0573 1.66279 16.0501 1.71355 16.0375L1.5329 15.3096ZM4.51728 14.5689L4.69795 15.297L4.71003 15.2937L4.51728 14.5689ZM4.90027 14.3148L5.48947 14.7789L5.49572 14.7708L4.90027 14.3148ZM11.5043 6.92494C11.7561 6.59608 11.6937 6.12533 11.3648 5.87349C11.036 5.62164 10.5652 5.68407 10.3134 6.01292L10.9088 6.46893L11.5043 6.92494ZM6.33423 2.88788C6.08236 3.21672 6.14476 3.68748 6.4736 3.93935C6.80244 4.19122 7.27319 4.12882 7.52506 3.79998L6.92965 3.34393L6.33423 2.88788ZM8.50937 1.28143L9.10479 1.73748C9.11424 1.72514 9.1233 1.71251 9.13197 1.69961L8.50937 1.28143ZM10.1299 0.948098L10.6227 0.38271C10.5989 0.362027 10.5739 0.342857 10.5478 0.325316L10.1299 0.948098ZM12.3552 2.88768L12.8981 2.3702C12.8822 2.35346 12.8654 2.33748 12.848 2.32229L12.3552 2.88768ZM12.6904 3.74276L13.4404 3.7467V3.7467L12.6904 3.74276ZM12.3463 4.59393L11.8091 4.07052C11.7885 4.09172 11.7691 4.11412 11.7511 4.13761L12.3463 4.59393ZM10.3136 6.01261C10.0616 6.34134 10.1238 6.81212 10.4525 7.06414C10.7812 7.31616 11.252 7.25397 11.504 6.92525L10.9088 6.46893L10.3136 6.01261ZM7.67208 3.23768C7.6134 2.82765 7.23343 2.54282 6.8234 2.6015C6.41336 2.66018 6.12853 3.04015 6.18721 3.45018L6.92965 3.34393L7.67208 3.23768ZM11.0145 7.21145C11.4245 7.15311 11.7097 6.77337 11.6513 6.36329C11.593 5.9532 11.2133 5.66806 10.8032 5.72641L10.9088 6.46893L11.0145 7.21145ZM6.92666 3.34393L6.33109 2.88808L0.463812 10.5537L1.05938 11.0096L1.65495 11.4654L7.52223 3.79978L6.92666 3.34393ZM1.05938 11.0096L0.480386 10.5328C0.277561 10.7792 0.160343 11.0833 0.140721 11.3984L0.889271 11.445L1.63782 11.4916C1.63799 11.4889 1.63856 11.4868 1.63901 11.4857C1.63946 11.4845 1.63954 11.4849 1.63837 11.4863L1.05938 11.0096ZM0.889271 11.445L0.140003 11.4118L0.000732481 14.5608L0.75 14.5939L1.49927 14.6271L1.63854 11.4781L0.889271 11.445ZM0.75 14.5939L0.00361222 14.6675C0.0805447 15.4485 0.73436 16.0873 1.55857 16.0591L1.5329 15.3096L1.50723 14.56C1.50937 14.5599 1.51241 14.5604 1.51467 14.5613C1.51641 14.5619 1.51548 14.562 1.51288 14.5596C1.5077 14.5549 1.49861 14.543 1.49639 14.5204L0.75 14.5939ZM1.5329 15.3096L1.71355 16.0375L4.69792 15.2969L4.51728 14.5689L4.33663 13.841L1.35226 14.5816L1.5329 15.3096ZM4.51728 14.5689L4.71003 15.2937C5.02132 15.211 5.29308 15.0281 5.48941 14.7789L4.90027 14.3148L4.31113 13.8506C4.31021 13.8518 4.31367 13.847 4.32452 13.8441L4.51728 14.5689ZM4.90027 14.3148L5.49572 14.7708L11.5043 6.92494L10.9088 6.46893L10.3134 6.01292L4.30482 13.8588L4.90027 14.3148ZM6.92965 3.34393L7.52506 3.79998L9.10479 1.73748L8.50937 1.28143L7.91396 0.825385L6.33423 2.88788L6.92965 3.34393ZM8.50937 1.28143L9.13197 1.69961C9.27577 1.48553 9.52774 1.44725 9.71199 1.57088L10.1299 0.948098L10.5478 0.325316C9.6555 -0.273432 8.47855 -0.0177886 7.88678 0.863249L8.50937 1.28143ZM10.1299 0.948098L9.63711 1.51349L11.8625 3.45307L12.3552 2.88768L12.848 2.32229L10.6227 0.38271L10.1299 0.948098ZM12.3552 2.88768L11.8124 3.40517C11.8913 3.48798 11.9411 3.60754 11.9404 3.73883L12.6904 3.74276L13.4404 3.7467C13.4431 3.23711 13.2515 2.74097 12.8981 2.3702L12.3552 2.88768ZM12.6904 3.74276L11.9404 3.73883C11.9397 3.8701 11.8887 3.98886 11.8091 4.07052L12.3463 4.59393L12.8834 5.11735C13.241 4.75042 13.4377 4.25629 13.4404 3.7467L12.6904 3.74276ZM12.3463 4.59393L11.7511 4.13761L10.3136 6.01261L10.9088 6.46893L11.504 6.92525L12.9415 5.05025L12.3463 4.59393ZM6.92965 3.34393L6.18721 3.45018C6.52844 5.8346 8.65472 7.54719 11.0145 7.21145L10.9088 6.46893L10.8032 5.72641C9.32423 5.93683 7.90496 4.86496 7.67208 3.23768L6.92965 3.34393Z" fill="#034EA2"/>
</svg>
