<svg width="12" height="17" viewBox="0 0 12 17" fill="none" xmlns="http://www.w3.org/2000/svg">
<path fill-rule="evenodd" clip-rule="evenodd" d="M9.86926 4.91681H1.57866C1.121 4.91681 0.75 5.3053 0.75 5.78452V12.7293C0.75 14.1676 1.86346 15.3335 3.23698 15.3335H8.21094C8.87053 15.3335 9.5031 15.0591 9.9695 14.5707C10.4359 14.0824 10.6979 13.42 10.6979 12.7293V5.78452C10.6979 5.3053 10.3269 4.91681 9.86926 4.91681Z" stroke="#E32A34" stroke-width="1.5" stroke-linecap="round" stroke-linejoin="round"/>
<path fill-rule="evenodd" clip-rule="evenodd" d="M8.70837 2.83342L8.60293 2.61363C8.05768 1.47149 6.94293 0.75 5.7235 0.75C4.50407 0.75 3.38932 1.47149 2.84408 2.61363L2.73962 2.83342H8.70837Z" stroke="#E32A34" stroke-width="1.5" stroke-linecap="round" stroke-linejoin="round"/>
<path d="M4.81564 8.3887C4.81564 7.97449 4.47985 7.6387 4.06564 7.6387C3.65143 7.6387 3.31564 7.97449 3.31564 8.3887H4.06564H4.81564ZM3.31564 11.8606C3.31564 12.2748 3.65143 12.6106 4.06564 12.6106C4.47985 12.6106 4.81564 12.2748 4.81564 11.8606H4.06564H3.31564ZM8.13228 8.3887C8.13228 7.97449 7.79649 7.6387 7.38228 7.6387C6.96806 7.6387 6.63228 7.97449 6.63228 8.3887H7.38228H8.13228ZM6.63228 11.8606C6.63228 12.2748 6.96806 12.6106 7.38228 12.6106C7.79649 12.6106 8.13228 12.2748 8.13228 11.8606H7.38228H6.63228ZM8.70833 2.0835C8.29412 2.0835 7.95833 2.41928 7.95833 2.8335C7.95833 3.24771 8.29412 3.5835 8.70833 3.5835V2.8335V2.0835ZM10.6979 3.5835C11.1121 3.5835 11.4479 3.24771 11.4479 2.8335C11.4479 2.41928 11.1121 2.0835 10.6979 2.0835V2.8335V3.5835ZM2.73958 3.5835C3.1538 3.5835 3.48958 3.24771 3.48958 2.8335C3.48958 2.41928 3.1538 2.0835 2.73958 2.0835V2.8335V3.5835ZM0.75 2.0835C0.335786 2.0835 0 2.41928 0 2.8335C0 3.24771 0.335786 3.5835 0.75 3.5835V2.8335V2.0835ZM4.06564 8.3887H3.31564V11.8606H4.06564H4.81564V8.3887H4.06564ZM7.38228 8.3887H6.63228V11.8606H7.38228H8.13228V8.3887H7.38228ZM8.70833 2.8335V3.5835H10.6979V2.8335V2.0835H8.70833V2.8335ZM2.73958 2.8335V2.0835H0.75V2.8335V3.5835H2.73958V2.8335Z" fill="#E32A34"/>
</svg>
